<svg width="817" height="262" viewBox="0 0 817 262" fill="none" xmlns="http://www.w3.org/2000/svg">
<path d="M0 40C0 17.9086 17.9086 0 40 0H651C673.091 0 691 17.9086 691 40V112H40C17.9086 112 0 94.0914 0 72V40Z" fill="#EBEFFF"/>
<path d="M73.0486 35.875C68.5986 35.8675 63.0236 37.2738 57.5236 40.1363C52.0324 42.9988 47.6799 46.7488 45.1249 50.4113C42.5686 54.0613 41.8774 57.4613 43.1349 59.8863C44.3936 62.2988 47.5761 63.6863 52.0374 63.6863C56.4986 63.6988 62.0736 62.2863 67.5611 59.4363C73.0611 56.5738 77.4111 52.8113 79.9611 49.1613C82.5236 45.5113 83.1986 42.1113 81.9486 39.6863C80.6861 37.2738 77.5111 35.875 73.0486 35.875ZM84.5361 44.6613C84.0986 46.5738 83.1486 48.5363 81.8111 50.4488C78.9861 54.4863 74.3736 58.4238 68.5986 61.4238C62.8236 64.4363 56.9611 65.9488 52.0361 65.9488C49.7111 65.9488 47.5561 65.5988 45.7399 64.8613L47.0636 67.4113C48.3236 69.8363 51.4974 71.2238 55.9611 71.2238C60.4236 71.2238 65.9986 69.8238 71.4861 66.9613C76.9861 64.1113 81.3361 60.3488 83.8861 56.6863C86.4361 53.0363 87.1361 49.6363 85.8736 47.2238L84.5361 44.6613ZM88.1361 46.7613C89.5361 50.0988 88.4111 54.1613 85.7361 57.9738C83.3736 61.3613 79.7611 64.6488 75.2861 67.3988C76.6736 67.5488 78.1236 67.6238 79.5986 67.6238C85.7861 67.6238 91.3861 66.2988 95.3361 64.2363C99.2986 62.1738 101.474 59.4738 101.474 56.7488C101.474 54.0238 99.2986 51.3238 95.3361 49.2613C93.3236 48.2113 90.8736 47.3488 88.1361 46.7613ZM101.474 62.3613C100.199 63.8488 98.4486 65.1613 96.3861 66.2363C92.0111 68.5113 86.1111 69.8738 79.5986 69.8738C76.9486 69.8738 74.3986 69.6488 72.0111 69.2238C69.1111 70.6863 66.1986 71.7738 63.3986 72.4863C63.5486 72.5738 63.6986 72.6488 63.8611 72.7363C67.8111 74.7988 73.4111 76.1238 79.5986 76.1238C85.7861 76.1238 91.3861 74.7988 95.3361 72.7363C99.2986 70.6738 101.474 67.9738 101.474 65.2488V62.3613Z" fill="#FFC700"/>
<path d="M146.08 44.696L138.816 58.584V67H135.904V58.584L128.608 44.696H131.84L137.344 55.992L142.848 44.696H146.08ZM147.063 58.168C147.063 56.376 147.426 54.808 148.151 53.464C148.877 52.0987 149.869 51.0427 151.127 50.296C152.407 49.5493 153.826 49.176 155.383 49.176C156.919 49.176 158.253 49.5067 159.383 50.168C160.514 50.8293 161.357 51.6613 161.911 52.664V49.464H164.855V67H161.911V63.736C161.335 64.76 160.471 65.6133 159.319 66.296C158.189 66.9573 156.866 67.288 155.351 67.288C153.794 67.288 152.386 66.904 151.127 66.136C149.869 65.368 148.877 64.2907 148.151 62.904C147.426 61.5173 147.063 59.9387 147.063 58.168ZM161.911 58.2C161.911 56.8773 161.645 55.7253 161.111 54.744C160.578 53.7627 159.853 53.016 158.935 52.504C158.039 51.9707 157.047 51.704 155.959 51.704C154.871 51.704 153.879 51.96 152.983 52.472C152.087 52.984 151.373 53.7307 150.839 54.712C150.306 55.6933 150.039 56.8453 150.039 58.168C150.039 59.512 150.306 60.6853 150.839 61.688C151.373 62.6693 152.087 63.4267 152.983 63.96C153.879 64.472 154.871 64.728 155.959 64.728C157.047 64.728 158.039 64.472 158.935 63.96C159.853 63.4267 160.578 62.6693 161.111 61.688C161.645 60.6853 161.911 59.5227 161.911 58.2ZM183.88 49.464L173.32 75.256H170.312L173.768 66.808L166.696 49.464H169.928L175.432 63.672L180.872 49.464H183.88ZM200.912 49.464L190.352 75.256H187.344L190.8 66.808L183.728 49.464H186.96L192.464 63.672L197.904 49.464H200.912ZM214.146 44.696L213.794 60.696H211.362L211.01 44.696H214.146ZM212.706 67.192C212.152 67.192 211.682 67 211.298 66.616C210.914 66.232 210.722 65.7627 210.722 65.208C210.722 64.6533 210.914 64.184 211.298 63.8C211.682 63.416 212.152 63.224 212.706 63.224C213.24 63.224 213.688 63.416 214.05 63.8C214.434 64.184 214.626 64.6533 214.626 65.208C214.626 65.7627 214.434 66.232 214.05 66.616C213.688 67 213.24 67.192 212.706 67.192ZM241.537 49.464L230.977 75.256H227.969L231.425 66.808L224.353 49.464H227.585L233.089 63.672L238.529 49.464H241.537ZM251.112 67.288C249.469 67.288 247.976 66.9147 246.632 66.168C245.309 65.4213 244.264 64.3653 243.496 63C242.749 61.6133 242.376 60.0133 242.376 58.2C242.376 56.408 242.76 54.8293 243.528 53.464C244.317 52.0773 245.384 51.0213 246.728 50.296C248.072 49.5493 249.576 49.176 251.24 49.176C252.904 49.176 254.408 49.5493 255.752 50.296C257.096 51.0213 258.152 52.0667 258.92 53.432C259.709 54.7973 260.104 56.3867 260.104 58.2C260.104 60.0133 259.699 61.6133 258.888 63C258.099 64.3653 257.021 65.4213 255.656 66.168C254.291 66.9147 252.776 67.288 251.112 67.288ZM251.112 64.728C252.157 64.728 253.139 64.4827 254.056 63.992C254.973 63.5013 255.709 62.7653 256.264 61.784C256.84 60.8027 257.128 59.608 257.128 58.2C257.128 56.792 256.851 55.5973 256.296 54.616C255.741 53.6347 255.016 52.9093 254.12 52.44C253.224 51.9493 252.253 51.704 251.208 51.704C250.141 51.704 249.16 51.9493 248.264 52.44C247.389 52.9093 246.685 53.6347 246.152 54.616C245.619 55.5973 245.352 56.792 245.352 58.2C245.352 59.6293 245.608 60.8347 246.12 61.816C246.653 62.7973 247.357 63.5333 248.232 64.024C249.107 64.4933 250.067 64.728 251.112 64.728ZM278.485 49.464V67H275.573V64.408C275.018 65.304 274.239 66.008 273.237 66.52C272.255 67.0107 271.167 67.256 269.973 67.256C268.607 67.256 267.381 66.9787 266.293 66.424C265.205 65.848 264.341 64.9947 263.701 63.864C263.082 62.7333 262.773 61.3573 262.773 59.736V49.464H265.653V59.352C265.653 61.08 266.09 62.4133 266.965 63.352C267.839 64.2693 269.034 64.728 270.549 64.728C272.106 64.728 273.333 64.248 274.229 63.288C275.125 62.328 275.573 60.9307 275.573 59.096V49.464H278.485ZM305.933 57.56C305.933 58.1147 305.901 58.7013 305.837 59.32H291.821C291.927 61.048 292.514 62.4027 293.581 63.384C294.669 64.344 295.981 64.824 297.517 64.824C298.775 64.824 299.821 64.536 300.653 63.96C301.506 63.3627 302.103 62.5733 302.445 61.592H305.581C305.111 63.2773 304.173 64.6533 302.765 65.72C301.357 66.7653 299.607 67.288 297.517 67.288C295.853 67.288 294.359 66.9147 293.037 66.168C291.735 65.4213 290.711 64.3653 289.965 63C289.218 61.6133 288.845 60.0133 288.845 58.2C288.845 56.3867 289.207 54.7973 289.933 53.432C290.658 52.0667 291.671 51.0213 292.973 50.296C294.295 49.5493 295.81 49.176 297.517 49.176C299.181 49.176 300.653 49.5387 301.933 50.264C303.213 50.9893 304.194 51.992 304.877 53.272C305.581 54.5307 305.933 55.96 305.933 57.56ZM302.925 56.952C302.925 55.8427 302.679 54.8933 302.189 54.104C301.698 53.2933 301.026 52.6853 300.173 52.28C299.341 51.8533 298.413 51.64 297.389 51.64C295.917 51.64 294.658 52.1093 293.613 53.048C292.589 53.9867 292.002 55.288 291.853 56.952H302.925ZM307.688 58.168C307.688 56.376 308.051 54.808 308.776 53.464C309.502 52.0987 310.494 51.0427 311.752 50.296C313.032 49.5493 314.451 49.176 316.008 49.176C317.544 49.176 318.878 49.5067 320.008 50.168C321.139 50.8293 321.982 51.6613 322.536 52.664V49.464H325.48V67H322.536V63.736C321.96 64.76 321.096 65.6133 319.944 66.296C318.814 66.9573 317.491 67.288 315.976 67.288C314.419 67.288 313.011 66.904 311.752 66.136C310.494 65.368 309.502 64.2907 308.776 62.904C308.051 61.5173 307.688 59.9387 307.688 58.168ZM322.536 58.2C322.536 56.8773 322.27 55.7253 321.736 54.744C321.203 53.7627 320.478 53.016 319.56 52.504C318.664 51.9707 317.672 51.704 316.584 51.704C315.496 51.704 314.504 51.96 313.608 52.472C312.712 52.984 311.998 53.7307 311.464 54.712C310.931 55.6933 310.664 56.8453 310.664 58.168C310.664 59.512 310.931 60.6853 311.464 61.688C311.998 62.6693 312.712 63.4267 313.608 63.96C314.504 64.472 315.496 64.728 316.584 64.728C317.672 64.728 318.664 64.472 319.56 63.96C320.478 63.4267 321.203 62.6693 321.736 61.688C322.27 60.6853 322.536 59.5227 322.536 58.2ZM332.313 52.312C332.825 51.3093 333.551 50.5307 334.489 49.976C335.449 49.4213 336.612 49.144 337.977 49.144V52.152H337.209C333.945 52.152 332.313 53.9227 332.313 57.464V67H329.401V49.464H332.313V52.312ZM348.883 49.144C351.016 49.144 352.744 49.7947 354.067 51.096C355.39 52.376 356.051 54.232 356.051 56.664V67H353.171V57.08C353.171 55.3307 352.734 53.9973 351.859 53.08C350.984 52.1413 349.79 51.672 348.275 51.672C346.739 51.672 345.512 52.152 344.595 53.112C343.699 54.072 343.251 55.4693 343.251 57.304V67H340.339V49.464H343.251V51.96C343.827 51.064 344.606 50.3707 345.587 49.88C346.59 49.3893 347.688 49.144 348.883 49.144ZM375.808 57.56C375.808 58.1147 375.776 58.7013 375.712 59.32H361.696C361.802 61.048 362.389 62.4027 363.456 63.384C364.544 64.344 365.856 64.824 367.392 64.824C368.65 64.824 369.696 64.536 370.528 63.96C371.381 63.3627 371.978 62.5733 372.32 61.592H375.456C374.986 63.2773 374.048 64.6533 372.64 65.72C371.232 66.7653 369.482 67.288 367.392 67.288C365.728 67.288 364.234 66.9147 362.912 66.168C361.61 65.4213 360.586 64.3653 359.84 63C359.093 61.6133 358.72 60.0133 358.72 58.2C358.72 56.3867 359.082 54.7973 359.808 53.432C360.533 52.0667 361.546 51.0213 362.848 50.296C364.17 49.5493 365.685 49.176 367.392 49.176C369.056 49.176 370.528 49.5387 371.808 50.264C373.088 50.9893 374.069 51.992 374.752 53.272C375.456 54.5307 375.808 55.96 375.808 57.56ZM372.8 56.952C372.8 55.8427 372.554 54.8933 372.064 54.104C371.573 53.2933 370.901 52.6853 370.048 52.28C369.216 51.8533 368.288 51.64 367.264 51.64C365.792 51.64 364.533 52.1093 363.488 53.048C362.464 53.9867 361.877 55.288 361.728 56.952H372.8ZM377.563 58.168C377.563 56.376 377.926 54.808 378.651 53.464C379.377 52.0987 380.369 51.0427 381.627 50.296C382.907 49.5493 384.337 49.176 385.915 49.176C387.281 49.176 388.55 49.496 389.723 50.136C390.897 50.7547 391.793 51.576 392.411 52.6V43.32H395.355V67H392.411V63.704C391.835 64.7493 390.982 65.6133 389.851 66.296C388.721 66.9573 387.398 67.288 385.883 67.288C384.326 67.288 382.907 66.904 381.627 66.136C380.369 65.368 379.377 64.2907 378.651 62.904C377.926 61.5173 377.563 59.9387 377.563 58.168ZM392.411 58.2C392.411 56.8773 392.145 55.7253 391.611 54.744C391.078 53.7627 390.353 53.016 389.435 52.504C388.539 51.9707 387.547 51.704 386.459 51.704C385.371 51.704 384.379 51.96 383.483 52.472C382.587 52.984 381.873 53.7307 381.339 54.712C380.806 55.6933 380.539 56.8453 380.539 58.168C380.539 59.512 380.806 60.6853 381.339 61.688C381.873 62.6693 382.587 63.4267 383.483 63.96C384.379 64.472 385.371 64.728 386.459 64.728C387.547 64.728 388.539 64.472 389.435 63.96C390.353 63.4267 391.078 62.6693 391.611 61.688C392.145 60.6853 392.411 59.5227 392.411 58.2ZM405.56 46.52V43.864H411.576V67H408.632V46.52H405.56ZM415.578 55.192C415.578 51.5227 416.175 48.664 417.37 46.616C418.564 44.5467 420.655 43.512 423.642 43.512C426.607 43.512 428.687 44.5467 429.882 46.616C431.076 48.664 431.674 51.5227 431.674 55.192C431.674 58.9253 431.076 61.8267 429.882 63.896C428.687 65.9653 426.607 67 423.642 67C420.655 67 418.564 65.9653 417.37 63.896C416.175 61.8267 415.578 58.9253 415.578 55.192ZM428.794 55.192C428.794 53.336 428.666 51.768 428.41 50.488C428.175 49.1867 427.674 48.1413 426.906 47.352C426.159 46.5627 425.071 46.168 423.642 46.168C422.191 46.168 421.082 46.5627 420.314 47.352C419.567 48.1413 419.066 49.1867 418.81 50.488C418.575 51.768 418.458 53.336 418.458 55.192C418.458 57.112 418.575 58.7227 418.81 60.024C419.066 61.3253 419.567 62.3707 420.314 63.16C421.082 63.9493 422.191 64.344 423.642 64.344C425.071 64.344 426.159 63.9493 426.906 63.16C427.674 62.3707 428.175 61.3253 428.41 60.024C428.666 58.7227 428.794 57.112 428.794 55.192ZM434.671 55.192C434.671 51.5227 435.269 48.664 436.463 46.616C437.658 44.5467 439.749 43.512 442.735 43.512C445.701 43.512 447.781 44.5467 448.975 46.616C450.17 48.664 450.767 51.5227 450.767 55.192C450.767 58.9253 450.17 61.8267 448.975 63.896C447.781 65.9653 445.701 67 442.735 67C439.749 67 437.658 65.9653 436.463 63.896C435.269 61.8267 434.671 58.9253 434.671 55.192ZM447.887 55.192C447.887 53.336 447.759 51.768 447.503 50.488C447.269 49.1867 446.767 48.1413 445.999 47.352C445.253 46.5627 444.165 46.168 442.735 46.168C441.285 46.168 440.175 46.5627 439.407 47.352C438.661 48.1413 438.159 49.1867 437.903 50.488C437.669 51.768 437.551 53.336 437.551 55.192C437.551 57.112 437.669 58.7227 437.903 60.024C438.159 61.3253 438.661 62.3707 439.407 63.16C440.175 63.9493 441.285 64.344 442.735 64.344C444.165 64.344 445.253 63.9493 445.999 63.16C446.767 62.3707 447.269 61.3253 447.503 60.024C447.759 58.7227 447.887 57.112 447.887 55.192ZM460.688 58.2C460.688 56.3867 461.051 54.808 461.776 53.464C462.502 52.0987 463.504 51.0427 464.784 50.296C466.086 49.5493 467.568 49.176 469.232 49.176C471.387 49.176 473.158 49.6987 474.544 50.744C475.952 51.7893 476.88 53.24 477.328 55.096H474.192C473.894 54.0293 473.307 53.1867 472.432 52.568C471.579 51.9493 470.512 51.64 469.232 51.64C467.568 51.64 466.224 52.216 465.2 53.368C464.176 54.4987 463.664 56.1093 463.664 58.2C463.664 60.312 464.176 61.944 465.2 63.096C466.224 64.248 467.568 64.824 469.232 64.824C470.512 64.824 471.579 64.5253 472.432 63.928C473.286 63.3307 473.872 62.4773 474.192 61.368H477.328C476.859 63.16 475.92 64.6 474.512 65.688C473.104 66.7547 471.344 67.288 469.232 67.288C467.568 67.288 466.086 66.9147 464.784 66.168C463.504 65.4213 462.502 64.3653 461.776 63C461.051 61.6347 460.688 60.0347 460.688 58.2ZM487.862 67.288C486.219 67.288 484.726 66.9147 483.382 66.168C482.059 65.4213 481.014 64.3653 480.246 63C479.499 61.6133 479.126 60.0133 479.126 58.2C479.126 56.408 479.51 54.8293 480.278 53.464C481.067 52.0773 482.134 51.0213 483.478 50.296C484.822 49.5493 486.326 49.176 487.99 49.176C489.654 49.176 491.158 49.5493 492.502 50.296C493.846 51.0213 494.902 52.0667 495.67 53.432C496.459 54.7973 496.854 56.3867 496.854 58.2C496.854 60.0133 496.449 61.6133 495.638 63C494.849 64.3653 493.771 65.4213 492.406 66.168C491.041 66.9147 489.526 67.288 487.862 67.288ZM487.862 64.728C488.907 64.728 489.889 64.4827 490.806 63.992C491.723 63.5013 492.459 62.7653 493.014 61.784C493.59 60.8027 493.878 59.608 493.878 58.2C493.878 56.792 493.601 55.5973 493.046 54.616C492.491 53.6347 491.766 52.9093 490.87 52.44C489.974 51.9493 489.003 51.704 487.958 51.704C486.891 51.704 485.91 51.9493 485.014 52.44C484.139 52.9093 483.435 53.6347 482.902 54.616C482.369 55.5973 482.102 56.792 482.102 58.2C482.102 59.6293 482.358 60.8347 482.87 61.816C483.403 62.7973 484.107 63.5333 484.982 64.024C485.857 64.4933 486.817 64.728 487.862 64.728ZM501.187 46.616C500.632 46.616 500.163 46.424 499.779 46.04C499.395 45.656 499.203 45.1867 499.203 44.632C499.203 44.0773 499.395 43.608 499.779 43.224C500.163 42.84 500.632 42.648 501.187 42.648C501.72 42.648 502.168 42.84 502.531 43.224C502.915 43.608 503.107 44.0773 503.107 44.632C503.107 45.1867 502.915 45.656 502.531 46.04C502.168 46.424 501.72 46.616 501.187 46.616ZM502.595 49.464V67H499.683V49.464H502.595ZM515.102 49.144C517.235 49.144 518.963 49.7947 520.286 51.096C521.608 52.376 522.27 54.232 522.27 56.664V67H519.39V57.08C519.39 55.3307 518.952 53.9973 518.078 53.08C517.203 52.1413 516.008 51.672 514.494 51.672C512.958 51.672 511.731 52.152 510.814 53.112C509.918 54.072 509.47 55.4693 509.47 57.304V67H506.558V49.464H509.47V51.96C510.046 51.064 510.824 50.3707 511.806 49.88C512.808 49.3893 513.907 49.144 515.102 49.144ZM532.234 67.288C530.89 67.288 529.685 67.064 528.618 66.616C527.552 66.1467 526.709 65.5067 526.09 64.696C525.472 63.864 525.13 62.9147 525.066 61.848H528.074C528.16 62.7227 528.565 63.4373 529.29 63.992C530.037 64.5467 531.008 64.824 532.202 64.824C533.312 64.824 534.186 64.5787 534.826 64.088C535.466 63.5973 535.786 62.9787 535.786 62.232C535.786 61.464 535.445 60.8987 534.762 60.536C534.08 60.152 533.024 59.7787 531.594 59.416C530.293 59.0747 529.226 58.7333 528.394 58.392C527.584 58.0293 526.88 57.5067 526.282 56.824C525.706 56.12 525.418 55.2027 525.418 54.072C525.418 53.176 525.685 52.3547 526.218 51.608C526.752 50.8613 527.509 50.2747 528.49 49.848C529.472 49.4 530.592 49.176 531.85 49.176C533.792 49.176 535.36 49.6667 536.554 50.648C537.749 51.6293 538.389 52.9733 538.474 54.68H535.562C535.498 53.7627 535.125 53.0267 534.442 52.472C533.781 51.9173 532.885 51.64 531.754 51.64C530.709 51.64 529.877 51.864 529.258 52.312C528.64 52.76 528.33 53.3467 528.33 54.072C528.33 54.648 528.512 55.128 528.874 55.512C529.258 55.8747 529.728 56.1733 530.282 56.408C530.858 56.6213 531.648 56.8667 532.65 57.144C533.909 57.4853 534.933 57.8267 535.722 58.168C536.512 58.488 537.184 58.9787 537.738 59.64C538.314 60.3013 538.613 61.1653 538.634 62.232C538.634 63.192 538.368 64.056 537.834 64.824C537.301 65.592 536.544 66.2 535.562 66.648C534.602 67.0747 533.493 67.288 532.234 67.288ZM556.924 67.288C555.282 67.288 553.788 66.9147 552.444 66.168C551.122 65.4213 550.076 64.3653 549.308 63C548.562 61.6133 548.188 60.0133 548.188 58.2C548.188 56.408 548.572 54.8293 549.34 53.464C550.13 52.0773 551.196 51.0213 552.54 50.296C553.884 49.5493 555.388 49.176 557.052 49.176C558.716 49.176 560.22 49.5493 561.564 50.296C562.908 51.0213 563.964 52.0667 564.732 53.432C565.522 54.7973 565.916 56.3867 565.916 58.2C565.916 60.0133 565.511 61.6133 564.7 63C563.911 64.3653 562.834 65.4213 561.468 66.168C560.103 66.9147 558.588 67.288 556.924 67.288ZM556.924 64.728C557.97 64.728 558.951 64.4827 559.868 63.992C560.786 63.5013 561.522 62.7653 562.076 61.784C562.652 60.8027 562.94 59.608 562.94 58.2C562.94 56.792 562.663 55.5973 562.108 54.616C561.554 53.6347 560.828 52.9093 559.932 52.44C559.036 51.9493 558.066 51.704 557.02 51.704C555.954 51.704 554.972 51.9493 554.076 52.44C553.202 52.9093 552.498 53.6347 551.964 54.616C551.431 55.5973 551.164 56.792 551.164 58.2C551.164 59.6293 551.42 60.8347 551.932 61.816C552.466 62.7973 553.17 63.5333 554.044 64.024C554.919 64.4933 555.879 64.728 556.924 64.728ZM577.289 49.144C579.423 49.144 581.151 49.7947 582.473 51.096C583.796 52.376 584.457 54.232 584.457 56.664V67H581.577V57.08C581.577 55.3307 581.14 53.9973 580.265 53.08C579.391 52.1413 578.196 51.672 576.681 51.672C575.145 51.672 573.919 52.152 573.001 53.112C572.105 54.072 571.657 55.4693 571.657 57.304V67H568.745V49.464H571.657V51.96C572.233 51.064 573.012 50.3707 573.993 49.88C574.996 49.3893 576.095 49.144 577.289 49.144ZM602.273 64.312L607.713 49.464H610.817L603.937 67H600.545L593.665 49.464H596.801L602.273 64.312ZM614.187 46.616C613.632 46.616 613.163 46.424 612.779 46.04C612.395 45.656 612.203 45.1867 612.203 44.632C612.203 44.0773 612.395 43.608 612.779 43.224C613.163 42.84 613.632 42.648 614.187 42.648C614.72 42.648 615.168 42.84 615.531 43.224C615.915 43.608 616.107 44.0773 616.107 44.632C616.107 45.1867 615.915 45.656 615.531 46.04C615.168 46.424 614.72 46.616 614.187 46.616ZM615.595 49.464V67H612.683V49.464H615.595ZM625.766 67.288C624.422 67.288 623.216 67.064 622.15 66.616C621.083 66.1467 620.24 65.5067 619.622 64.696C619.003 63.864 618.662 62.9147 618.598 61.848H621.606C621.691 62.7227 622.096 63.4373 622.822 63.992C623.568 64.5467 624.539 64.824 625.734 64.824C626.843 64.824 627.718 64.5787 628.358 64.088C628.998 63.5973 629.318 62.9787 629.318 62.232C629.318 61.464 628.976 60.8987 628.294 60.536C627.611 60.152 626.555 59.7787 625.126 59.416C623.824 59.0747 622.758 58.7333 621.926 58.392C621.115 58.0293 620.411 57.5067 619.814 56.824C619.238 56.12 618.95 55.2027 618.95 54.072C618.95 53.176 619.216 52.3547 619.75 51.608C620.283 50.8613 621.04 50.2747 622.022 49.848C623.003 49.4 624.123 49.176 625.382 49.176C627.323 49.176 628.891 49.6667 630.086 50.648C631.28 51.6293 631.92 52.9733 632.006 54.68H629.094C629.03 53.7627 628.656 53.0267 627.974 52.472C627.312 51.9173 626.416 51.64 625.286 51.64C624.24 51.64 623.408 51.864 622.79 52.312C622.171 52.76 621.862 53.3467 621.862 54.072C621.862 54.648 622.043 55.128 622.406 55.512C622.79 55.8747 623.259 56.1733 623.814 56.408C624.39 56.6213 625.179 56.8667 626.182 57.144C627.44 57.4853 628.464 57.8267 629.254 58.168C630.043 58.488 630.715 58.9787 631.27 59.64C631.846 60.3013 632.144 61.1653 632.166 62.232C632.166 63.192 631.899 64.056 631.366 64.824C630.832 65.592 630.075 66.2 629.094 66.648C628.134 67.0747 627.024 67.288 625.766 67.288ZM636.78 46.616C636.226 46.616 635.756 46.424 635.372 46.04C634.988 45.656 634.796 45.1867 634.796 44.632C634.796 44.0773 634.988 43.608 635.372 43.224C635.756 42.84 636.226 42.648 636.78 42.648C637.314 42.648 637.762 42.84 638.124 43.224C638.508 43.608 638.7 44.0773 638.7 44.632C638.7 45.1867 638.508 45.656 638.124 46.04C637.762 46.424 637.314 46.616 636.78 46.616ZM638.188 49.464V67H635.276V49.464H638.188ZM645.703 51.864V62.2C645.703 63.0533 645.885 63.6613 646.247 64.024C646.61 64.3653 647.239 64.536 648.135 64.536H650.279V67H647.655C646.034 67 644.818 66.6267 644.007 65.88C643.197 65.1333 642.791 63.9067 642.791 62.2V51.864H640.519V49.464H642.791V45.048H645.703V49.464H650.279V51.864H645.703Z" fill="#050401"/>
<path d="M98 190C98 167.909 115.909 150 138 150H777C799.091 150 817 167.909 817 190V262H138C115.909 262 98 244.091 98 222V190Z" fill="#EBEFFF"/>
<path d="M171.049 185.875C166.599 185.868 161.024 187.274 155.524 190.136C150.032 192.999 145.68 196.749 143.125 200.411C140.569 204.061 139.877 207.461 141.135 209.886C142.394 212.299 145.576 213.686 150.037 213.686C154.499 213.699 160.074 212.286 165.561 209.436C171.061 206.574 175.411 202.811 177.961 199.161C180.524 195.511 181.199 192.111 179.949 189.686C178.686 187.274 175.511 185.875 171.049 185.875ZM182.536 194.661C182.099 196.574 181.149 198.536 179.811 200.449C176.986 204.486 172.374 208.424 166.599 211.424C160.824 214.436 154.961 215.949 150.036 215.949C147.711 215.949 145.556 215.599 143.74 214.861L145.064 217.411C146.324 219.836 149.497 221.224 153.961 221.224C158.424 221.224 163.999 219.824 169.486 216.961C174.986 214.111 179.336 210.349 181.886 206.686C184.436 203.036 185.136 199.636 183.874 197.224L182.536 194.661ZM186.136 196.761C187.536 200.099 186.411 204.161 183.736 207.974C181.374 211.361 177.761 214.649 173.286 217.399C174.674 217.549 176.124 217.624 177.599 217.624C183.786 217.624 189.386 216.299 193.336 214.236C197.299 212.174 199.474 209.474 199.474 206.749C199.474 204.024 197.299 201.324 193.336 199.261C191.324 198.211 188.874 197.349 186.136 196.761ZM199.474 212.361C198.199 213.849 196.449 215.161 194.386 216.236C190.011 218.511 184.111 219.874 177.599 219.874C174.949 219.874 172.399 219.649 170.011 219.224C167.111 220.686 164.199 221.774 161.399 222.486C161.549 222.574 161.699 222.649 161.861 222.736C165.811 224.799 171.411 226.124 177.599 226.124C183.786 226.124 189.386 224.799 193.336 222.736C197.299 220.674 199.474 217.974 199.474 215.249V212.361Z" fill="#FFC700"/>
<path d="M244.08 194.696L236.816 208.584V217H233.904V208.584L226.608 194.696H229.84L235.344 205.992L240.848 194.696H244.08ZM245.063 208.168C245.063 206.376 245.426 204.808 246.151 203.464C246.877 202.099 247.869 201.043 249.127 200.296C250.407 199.549 251.826 199.176 253.383 199.176C254.919 199.176 256.253 199.507 257.383 200.168C258.514 200.829 259.357 201.661 259.911 202.664V199.464H262.855V217H259.911V213.736C259.335 214.76 258.471 215.613 257.319 216.296C256.189 216.957 254.866 217.288 253.351 217.288C251.794 217.288 250.386 216.904 249.127 216.136C247.869 215.368 246.877 214.291 246.151 212.904C245.426 211.517 245.063 209.939 245.063 208.168ZM259.911 208.2C259.911 206.877 259.645 205.725 259.111 204.744C258.578 203.763 257.853 203.016 256.935 202.504C256.039 201.971 255.047 201.704 253.959 201.704C252.871 201.704 251.879 201.96 250.983 202.472C250.087 202.984 249.373 203.731 248.839 204.712C248.306 205.693 248.039 206.845 248.039 208.168C248.039 209.512 248.306 210.685 248.839 211.688C249.373 212.669 250.087 213.427 250.983 213.96C251.879 214.472 252.871 214.728 253.959 214.728C255.047 214.728 256.039 214.472 256.935 213.96C257.853 213.427 258.578 212.669 259.111 211.688C259.645 210.685 259.911 209.523 259.911 208.2ZM281.88 199.464L271.32 225.256H268.312L271.768 216.808L264.696 199.464H267.928L273.432 213.672L278.872 199.464H281.88ZM298.912 199.464L288.352 225.256H285.344L288.8 216.808L281.728 199.464H284.96L290.464 213.672L295.904 199.464H298.912ZM312.146 194.696L311.794 210.696H309.362L309.01 194.696H312.146ZM310.706 217.192C310.152 217.192 309.682 217 309.298 216.616C308.914 216.232 308.722 215.763 308.722 215.208C308.722 214.653 308.914 214.184 309.298 213.8C309.682 213.416 310.152 213.224 310.706 213.224C311.24 213.224 311.688 213.416 312.05 213.8C312.434 214.184 312.626 214.653 312.626 215.208C312.626 215.763 312.434 216.232 312.05 216.616C311.688 217 311.24 217.192 310.706 217.192ZM339.537 199.464L328.977 225.256H325.969L329.425 216.808L322.353 199.464H325.585L331.089 213.672L336.529 199.464H339.537ZM349.112 217.288C347.469 217.288 345.976 216.915 344.632 216.168C343.309 215.421 342.264 214.365 341.496 213C340.749 211.613 340.376 210.013 340.376 208.2C340.376 206.408 340.76 204.829 341.528 203.464C342.317 202.077 343.384 201.021 344.728 200.296C346.072 199.549 347.576 199.176 349.24 199.176C350.904 199.176 352.408 199.549 353.752 200.296C355.096 201.021 356.152 202.067 356.92 203.432C357.709 204.797 358.104 206.387 358.104 208.2C358.104 210.013 357.699 211.613 356.888 213C356.099 214.365 355.021 215.421 353.656 216.168C352.291 216.915 350.776 217.288 349.112 217.288ZM349.112 214.728C350.157 214.728 351.139 214.483 352.056 213.992C352.973 213.501 353.709 212.765 354.264 211.784C354.84 210.803 355.128 209.608 355.128 208.2C355.128 206.792 354.851 205.597 354.296 204.616C353.741 203.635 353.016 202.909 352.12 202.44C351.224 201.949 350.253 201.704 349.208 201.704C348.141 201.704 347.16 201.949 346.264 202.44C345.389 202.909 344.685 203.635 344.152 204.616C343.619 205.597 343.352 206.792 343.352 208.2C343.352 209.629 343.608 210.835 344.12 211.816C344.653 212.797 345.357 213.533 346.232 214.024C347.107 214.493 348.067 214.728 349.112 214.728ZM376.485 199.464V217H373.573V214.408C373.018 215.304 372.239 216.008 371.237 216.52C370.255 217.011 369.167 217.256 367.973 217.256C366.607 217.256 365.381 216.979 364.293 216.424C363.205 215.848 362.341 214.995 361.701 213.864C361.082 212.733 360.773 211.357 360.773 209.736V199.464H363.653V209.352C363.653 211.08 364.09 212.413 364.965 213.352C365.839 214.269 367.034 214.728 368.549 214.728C370.106 214.728 371.333 214.248 372.229 213.288C373.125 212.328 373.573 210.931 373.573 209.096V199.464H376.485ZM403.933 207.56C403.933 208.115 403.901 208.701 403.837 209.32H389.821C389.927 211.048 390.514 212.403 391.581 213.384C392.669 214.344 393.981 214.824 395.517 214.824C396.775 214.824 397.821 214.536 398.653 213.96C399.506 213.363 400.103 212.573 400.445 211.592H403.581C403.111 213.277 402.173 214.653 400.765 215.72C399.357 216.765 397.607 217.288 395.517 217.288C393.853 217.288 392.359 216.915 391.037 216.168C389.735 215.421 388.711 214.365 387.965 213C387.218 211.613 386.845 210.013 386.845 208.2C386.845 206.387 387.207 204.797 387.933 203.432C388.658 202.067 389.671 201.021 390.973 200.296C392.295 199.549 393.81 199.176 395.517 199.176C397.181 199.176 398.653 199.539 399.933 200.264C401.213 200.989 402.194 201.992 402.877 203.272C403.581 204.531 403.933 205.96 403.933 207.56ZM400.925 206.952C400.925 205.843 400.679 204.893 400.189 204.104C399.698 203.293 399.026 202.685 398.173 202.28C397.341 201.853 396.413 201.64 395.389 201.64C393.917 201.64 392.658 202.109 391.613 203.048C390.589 203.987 390.002 205.288 389.853 206.952H400.925ZM405.688 208.168C405.688 206.376 406.051 204.808 406.776 203.464C407.502 202.099 408.494 201.043 409.752 200.296C411.032 199.549 412.451 199.176 414.008 199.176C415.544 199.176 416.878 199.507 418.008 200.168C419.139 200.829 419.982 201.661 420.536 202.664V199.464H423.48V217H420.536V213.736C419.96 214.76 419.096 215.613 417.944 216.296C416.814 216.957 415.491 217.288 413.976 217.288C412.419 217.288 411.011 216.904 409.752 216.136C408.494 215.368 407.502 214.291 406.776 212.904C406.051 211.517 405.688 209.939 405.688 208.168ZM420.536 208.2C420.536 206.877 420.27 205.725 419.736 204.744C419.203 203.763 418.478 203.016 417.56 202.504C416.664 201.971 415.672 201.704 414.584 201.704C413.496 201.704 412.504 201.96 411.608 202.472C410.712 202.984 409.998 203.731 409.464 204.712C408.931 205.693 408.664 206.845 408.664 208.168C408.664 209.512 408.931 210.685 409.464 211.688C409.998 212.669 410.712 213.427 411.608 213.96C412.504 214.472 413.496 214.728 414.584 214.728C415.672 214.728 416.664 214.472 417.56 213.96C418.478 213.427 419.203 212.669 419.736 211.688C420.27 210.685 420.536 209.523 420.536 208.2ZM430.313 202.312C430.825 201.309 431.551 200.531 432.489 199.976C433.449 199.421 434.612 199.144 435.977 199.144V202.152H435.209C431.945 202.152 430.313 203.923 430.313 207.464V217H427.401V199.464H430.313V202.312ZM446.883 199.144C449.016 199.144 450.744 199.795 452.067 201.096C453.39 202.376 454.051 204.232 454.051 206.664V217H451.171V207.08C451.171 205.331 450.734 203.997 449.859 203.08C448.984 202.141 447.79 201.672 446.275 201.672C444.739 201.672 443.512 202.152 442.595 203.112C441.699 204.072 441.251 205.469 441.251 207.304V217H438.339V199.464H441.251V201.96C441.827 201.064 442.606 200.371 443.587 199.88C444.59 199.389 445.688 199.144 446.883 199.144ZM473.808 207.56C473.808 208.115 473.776 208.701 473.712 209.32H459.696C459.802 211.048 460.389 212.403 461.456 213.384C462.544 214.344 463.856 214.824 465.392 214.824C466.65 214.824 467.696 214.536 468.528 213.96C469.381 213.363 469.978 212.573 470.32 211.592H473.456C472.986 213.277 472.048 214.653 470.64 215.72C469.232 216.765 467.482 217.288 465.392 217.288C463.728 217.288 462.234 216.915 460.912 216.168C459.61 215.421 458.586 214.365 457.84 213C457.093 211.613 456.72 210.013 456.72 208.2C456.72 206.387 457.082 204.797 457.808 203.432C458.533 202.067 459.546 201.021 460.848 200.296C462.17 199.549 463.685 199.176 465.392 199.176C467.056 199.176 468.528 199.539 469.808 200.264C471.088 200.989 472.069 201.992 472.752 203.272C473.456 204.531 473.808 205.96 473.808 207.56ZM470.8 206.952C470.8 205.843 470.554 204.893 470.064 204.104C469.573 203.293 468.901 202.685 468.048 202.28C467.216 201.853 466.288 201.64 465.264 201.64C463.792 201.64 462.533 202.109 461.488 203.048C460.464 203.987 459.877 205.288 459.728 206.952H470.8ZM475.563 208.168C475.563 206.376 475.926 204.808 476.651 203.464C477.377 202.099 478.369 201.043 479.627 200.296C480.907 199.549 482.337 199.176 483.915 199.176C485.281 199.176 486.55 199.496 487.723 200.136C488.897 200.755 489.793 201.576 490.411 202.6V193.32H493.355V217H490.411V213.704C489.835 214.749 488.982 215.613 487.851 216.296C486.721 216.957 485.398 217.288 483.883 217.288C482.326 217.288 480.907 216.904 479.627 216.136C478.369 215.368 477.377 214.291 476.651 212.904C475.926 211.517 475.563 209.939 475.563 208.168ZM490.411 208.2C490.411 206.877 490.145 205.725 489.611 204.744C489.078 203.763 488.353 203.016 487.435 202.504C486.539 201.971 485.547 201.704 484.459 201.704C483.371 201.704 482.379 201.96 481.483 202.472C480.587 202.984 479.873 203.731 479.339 204.712C478.806 205.693 478.539 206.845 478.539 208.168C478.539 209.512 478.806 210.685 479.339 211.688C479.873 212.669 480.587 213.427 481.483 213.96C482.379 214.472 483.371 214.728 484.459 214.728C485.547 214.728 486.539 214.472 487.435 213.96C488.353 213.427 489.078 212.669 489.611 211.688C490.145 210.685 490.411 209.523 490.411 208.2ZM503.56 196.52V193.864H509.576V217H506.632V196.52H503.56ZM513.578 205.192C513.578 201.523 514.175 198.664 515.37 196.616C516.564 194.547 518.655 193.512 521.642 193.512C524.607 193.512 526.687 194.547 527.882 196.616C529.076 198.664 529.674 201.523 529.674 205.192C529.674 208.925 529.076 211.827 527.882 213.896C526.687 215.965 524.607 217 521.642 217C518.655 217 516.564 215.965 515.37 213.896C514.175 211.827 513.578 208.925 513.578 205.192ZM526.794 205.192C526.794 203.336 526.666 201.768 526.41 200.488C526.175 199.187 525.674 198.141 524.906 197.352C524.159 196.563 523.071 196.168 521.642 196.168C520.191 196.168 519.082 196.563 518.314 197.352C517.567 198.141 517.066 199.187 516.81 200.488C516.575 201.768 516.458 203.336 516.458 205.192C516.458 207.112 516.575 208.723 516.81 210.024C517.066 211.325 517.567 212.371 518.314 213.16C519.082 213.949 520.191 214.344 521.642 214.344C523.071 214.344 524.159 213.949 524.906 213.16C525.674 212.371 526.175 211.325 526.41 210.024C526.666 208.723 526.794 207.112 526.794 205.192ZM532.671 205.192C532.671 201.523 533.269 198.664 534.463 196.616C535.658 194.547 537.749 193.512 540.735 193.512C543.701 193.512 545.781 194.547 546.975 196.616C548.17 198.664 548.767 201.523 548.767 205.192C548.767 208.925 548.17 211.827 546.975 213.896C545.781 215.965 543.701 217 540.735 217C537.749 217 535.658 215.965 534.463 213.896C533.269 211.827 532.671 208.925 532.671 205.192ZM545.887 205.192C545.887 203.336 545.759 201.768 545.503 200.488C545.269 199.187 544.767 198.141 543.999 197.352C543.253 196.563 542.165 196.168 540.735 196.168C539.285 196.168 538.175 196.563 537.407 197.352C536.661 198.141 536.159 199.187 535.903 200.488C535.669 201.768 535.551 203.336 535.551 205.192C535.551 207.112 535.669 208.723 535.903 210.024C536.159 211.325 536.661 212.371 537.407 213.16C538.175 213.949 539.285 214.344 540.735 214.344C542.165 214.344 543.253 213.949 543.999 213.16C544.767 212.371 545.269 211.325 545.503 210.024C545.759 208.723 545.887 207.112 545.887 205.192ZM551.765 205.192C551.765 201.523 552.363 198.664 553.557 196.616C554.752 194.547 556.843 193.512 559.829 193.512C562.795 193.512 564.875 194.547 566.069 196.616C567.264 198.664 567.861 201.523 567.861 205.192C567.861 208.925 567.264 211.827 566.069 213.896C564.875 215.965 562.795 217 559.829 217C556.843 217 554.752 215.965 553.557 213.896C552.363 211.827 551.765 208.925 551.765 205.192ZM564.981 205.192C564.981 203.336 564.853 201.768 564.597 200.488C564.363 199.187 563.861 198.141 563.093 197.352C562.347 196.563 561.259 196.168 559.829 196.168C558.379 196.168 557.269 196.563 556.501 197.352C555.755 198.141 555.253 199.187 554.997 200.488C554.763 201.768 554.645 203.336 554.645 205.192C554.645 207.112 554.763 208.723 554.997 210.024C555.253 211.325 555.755 212.371 556.501 213.16C557.269 213.949 558.379 214.344 559.829 214.344C561.259 214.344 562.347 213.949 563.093 213.16C563.861 212.371 564.363 211.325 564.597 210.024C564.853 208.723 564.981 207.112 564.981 205.192ZM577.782 208.2C577.782 206.387 578.145 204.808 578.87 203.464C579.596 202.099 580.598 201.043 581.878 200.296C583.18 199.549 584.662 199.176 586.326 199.176C588.481 199.176 590.252 199.699 591.638 200.744C593.046 201.789 593.974 203.24 594.422 205.096H591.286C590.988 204.029 590.401 203.187 589.526 202.568C588.673 201.949 587.606 201.64 586.326 201.64C584.662 201.64 583.318 202.216 582.294 203.368C581.27 204.499 580.758 206.109 580.758 208.2C580.758 210.312 581.27 211.944 582.294 213.096C583.318 214.248 584.662 214.824 586.326 214.824C587.606 214.824 588.673 214.525 589.526 213.928C590.38 213.331 590.966 212.477 591.286 211.368H594.422C593.953 213.16 593.014 214.6 591.606 215.688C590.198 216.755 588.438 217.288 586.326 217.288C584.662 217.288 583.18 216.915 581.878 216.168C580.598 215.421 579.596 214.365 578.87 213C578.145 211.635 577.782 210.035 577.782 208.2ZM604.956 217.288C603.313 217.288 601.82 216.915 600.476 216.168C599.153 215.421 598.108 214.365 597.34 213C596.593 211.613 596.22 210.013 596.22 208.2C596.22 206.408 596.604 204.829 597.372 203.464C598.161 202.077 599.228 201.021 600.572 200.296C601.916 199.549 603.42 199.176 605.084 199.176C606.748 199.176 608.252 199.549 609.596 200.296C610.94 201.021 611.996 202.067 612.764 203.432C613.553 204.797 613.948 206.387 613.948 208.2C613.948 210.013 613.542 211.613 612.732 213C611.942 214.365 610.865 215.421 609.5 216.168C608.134 216.915 606.62 217.288 604.956 217.288ZM604.956 214.728C606.001 214.728 606.982 214.483 607.9 213.992C608.817 213.501 609.553 212.765 610.108 211.784C610.684 210.803 610.972 209.608 610.972 208.2C610.972 206.792 610.694 205.597 610.14 204.616C609.585 203.635 608.86 202.909 607.964 202.44C607.068 201.949 606.097 201.704 605.052 201.704C603.985 201.704 603.004 201.949 602.108 202.44C601.233 202.909 600.529 203.635 599.996 204.616C599.462 205.597 599.196 206.792 599.196 208.2C599.196 209.629 599.452 210.835 599.964 211.816C600.497 212.797 601.201 213.533 602.076 214.024C602.95 214.493 603.91 214.728 604.956 214.728ZM618.28 196.616C617.726 196.616 617.256 196.424 616.872 196.04C616.488 195.656 616.296 195.187 616.296 194.632C616.296 194.077 616.488 193.608 616.872 193.224C617.256 192.84 617.726 192.648 618.28 192.648C618.814 192.648 619.262 192.84 619.624 193.224C620.008 193.608 620.2 194.077 620.2 194.632C620.2 195.187 620.008 195.656 619.624 196.04C619.262 196.424 618.814 196.616 618.28 196.616ZM619.688 199.464V217H616.776V199.464H619.688ZM632.195 199.144C634.329 199.144 636.057 199.795 637.379 201.096C638.702 202.376 639.363 204.232 639.363 206.664V217H636.483V207.08C636.483 205.331 636.046 203.997 635.171 203.08C634.297 202.141 633.102 201.672 631.587 201.672C630.051 201.672 628.825 202.152 627.907 203.112C627.011 204.072 626.563 205.469 626.563 207.304V217H623.651V199.464H626.563V201.96C627.139 201.064 627.918 200.371 628.899 199.88C629.902 199.389 631.001 199.144 632.195 199.144ZM649.328 217.288C647.984 217.288 646.779 217.064 645.712 216.616C644.646 216.147 643.803 215.507 643.184 214.696C642.566 213.864 642.224 212.915 642.16 211.848H645.168C645.254 212.723 645.659 213.437 646.384 213.992C647.131 214.547 648.102 214.824 649.296 214.824C650.406 214.824 651.28 214.579 651.92 214.088C652.56 213.597 652.88 212.979 652.88 212.232C652.88 211.464 652.539 210.899 651.856 210.536C651.174 210.152 650.118 209.779 648.688 209.416C647.387 209.075 646.32 208.733 645.488 208.392C644.678 208.029 643.974 207.507 643.376 206.824C642.8 206.12 642.512 205.203 642.512 204.072C642.512 203.176 642.779 202.355 643.312 201.608C643.846 200.861 644.603 200.275 645.584 199.848C646.566 199.4 647.686 199.176 648.944 199.176C650.886 199.176 652.454 199.667 653.648 200.648C654.843 201.629 655.483 202.973 655.568 204.68H652.656C652.592 203.763 652.219 203.027 651.536 202.472C650.875 201.917 649.979 201.64 648.848 201.64C647.803 201.64 646.971 201.864 646.352 202.312C645.734 202.76 645.424 203.347 645.424 204.072C645.424 204.648 645.606 205.128 645.968 205.512C646.352 205.875 646.822 206.173 647.376 206.408C647.952 206.621 648.742 206.867 649.744 207.144C651.003 207.485 652.027 207.827 652.816 208.168C653.606 208.488 654.278 208.979 654.832 209.64C655.408 210.301 655.707 211.165 655.728 212.232C655.728 213.192 655.462 214.056 654.928 214.824C654.395 215.592 653.638 216.2 652.656 216.648C651.696 217.075 650.587 217.288 649.328 217.288ZM674.018 217.288C672.376 217.288 670.882 216.915 669.538 216.168C668.216 215.421 667.17 214.365 666.402 213C665.656 211.613 665.282 210.013 665.282 208.2C665.282 206.408 665.666 204.829 666.434 203.464C667.224 202.077 668.29 201.021 669.634 200.296C670.978 199.549 672.482 199.176 674.146 199.176C675.81 199.176 677.314 199.549 678.658 200.296C680.002 201.021 681.058 202.067 681.826 203.432C682.616 204.797 683.01 206.387 683.01 208.2C683.01 210.013 682.605 211.613 681.794 213C681.005 214.365 679.928 215.421 678.562 216.168C677.197 216.915 675.682 217.288 674.018 217.288ZM674.018 214.728C675.064 214.728 676.045 214.483 676.962 213.992C677.88 213.501 678.616 212.765 679.17 211.784C679.746 210.803 680.034 209.608 680.034 208.2C680.034 206.792 679.757 205.597 679.202 204.616C678.648 203.635 677.922 202.909 677.026 202.44C676.13 201.949 675.16 201.704 674.114 201.704C673.048 201.704 672.066 201.949 671.17 202.44C670.296 202.909 669.592 203.635 669.058 204.616C668.525 205.597 668.258 206.792 668.258 208.2C668.258 209.629 668.514 210.835 669.026 211.816C669.56 212.797 670.264 213.533 671.138 214.024C672.013 214.493 672.973 214.728 674.018 214.728ZM694.383 199.144C696.516 199.144 698.244 199.795 699.567 201.096C700.89 202.376 701.551 204.232 701.551 206.664V217H698.671V207.08C698.671 205.331 698.234 203.997 697.359 203.08C696.484 202.141 695.29 201.672 693.775 201.672C692.239 201.672 691.012 202.152 690.095 203.112C689.199 204.072 688.751 205.469 688.751 207.304V217H685.839V199.464H688.751V201.96C689.327 201.064 690.106 200.371 691.087 199.88C692.09 199.389 693.188 199.144 694.383 199.144ZM715.751 202.696C716.327 201.693 717.18 200.861 718.311 200.2C719.463 199.517 720.796 199.176 722.311 199.176C723.868 199.176 725.276 199.549 726.535 200.296C727.815 201.043 728.818 202.099 729.543 203.464C730.268 204.808 730.631 206.376 730.631 208.168C730.631 209.939 730.268 211.517 729.543 212.904C728.818 214.291 727.815 215.368 726.535 216.136C725.276 216.904 723.868 217.288 722.311 217.288C720.818 217.288 719.495 216.957 718.343 216.296C717.212 215.613 716.348 214.771 715.751 213.768V225.32H712.839V199.464H715.751V202.696ZM727.655 208.168C727.655 206.845 727.388 205.693 726.855 204.712C726.322 203.731 725.596 202.984 724.679 202.472C723.783 201.96 722.791 201.704 721.703 201.704C720.636 201.704 719.644 201.971 718.727 202.504C717.831 203.016 717.106 203.773 716.551 204.776C716.018 205.757 715.751 206.899 715.751 208.2C715.751 209.523 716.018 210.685 716.551 211.688C717.106 212.669 717.831 213.427 718.727 213.96C719.644 214.472 720.636 214.728 721.703 214.728C722.791 214.728 723.783 214.472 724.679 213.96C725.596 213.427 726.322 212.669 726.855 211.688C727.388 210.685 727.655 209.512 727.655 208.168ZM741.112 217.288C739.469 217.288 737.976 216.915 736.632 216.168C735.309 215.421 734.264 214.365 733.496 213C732.749 211.613 732.376 210.013 732.376 208.2C732.376 206.408 732.76 204.829 733.528 203.464C734.317 202.077 735.384 201.021 736.728 200.296C738.072 199.549 739.576 199.176 741.24 199.176C742.904 199.176 744.408 199.549 745.752 200.296C747.096 201.021 748.152 202.067 748.92 203.432C749.709 204.797 750.104 206.387 750.104 208.2C750.104 210.013 749.699 211.613 748.888 213C748.099 214.365 747.021 215.421 745.656 216.168C744.291 216.915 742.776 217.288 741.112 217.288ZM741.112 214.728C742.157 214.728 743.139 214.483 744.056 213.992C744.973 213.501 745.709 212.765 746.264 211.784C746.84 210.803 747.128 209.608 747.128 208.2C747.128 206.792 746.851 205.597 746.296 204.616C745.741 203.635 745.016 202.909 744.12 202.44C743.224 201.949 742.253 201.704 741.208 201.704C740.141 201.704 739.16 201.949 738.264 202.44C737.389 202.909 736.685 203.635 736.152 204.616C735.619 205.597 735.352 206.792 735.352 208.2C735.352 209.629 735.608 210.835 736.12 211.816C736.653 212.797 737.357 213.533 738.232 214.024C739.107 214.493 740.067 214.728 741.112 214.728ZM759.141 217.288C757.797 217.288 756.591 217.064 755.525 216.616C754.458 216.147 753.615 215.507 752.997 214.696C752.378 213.864 752.037 212.915 751.973 211.848H754.981C755.066 212.723 755.471 213.437 756.197 213.992C756.943 214.547 757.914 214.824 759.109 214.824C760.218 214.824 761.093 214.579 761.733 214.088C762.373 213.597 762.693 212.979 762.693 212.232C762.693 211.464 762.351 210.899 761.669 210.536C760.986 210.152 759.93 209.779 758.501 209.416C757.199 209.075 756.133 208.733 755.301 208.392C754.49 208.029 753.786 207.507 753.189 206.824C752.613 206.12 752.325 205.203 752.325 204.072C752.325 203.176 752.591 202.355 753.125 201.608C753.658 200.861 754.415 200.275 755.397 199.848C756.378 199.4 757.498 199.176 758.757 199.176C760.698 199.176 762.266 199.667 763.461 200.648C764.655 201.629 765.295 202.973 765.381 204.68H762.469C762.405 203.763 762.031 203.027 761.349 202.472C760.687 201.917 759.791 201.64 758.661 201.64C757.615 201.64 756.783 201.864 756.165 202.312C755.546 202.76 755.237 203.347 755.237 204.072C755.237 204.648 755.418 205.128 755.781 205.512C756.165 205.875 756.634 206.173 757.189 206.408C757.765 206.621 758.554 206.867 759.557 207.144C760.815 207.485 761.839 207.827 762.629 208.168C763.418 208.488 764.09 208.979 764.645 209.64C765.221 210.301 765.519 211.165 765.541 212.232C765.541 213.192 765.274 214.056 764.741 214.824C764.207 215.592 763.45 216.2 762.469 216.648C761.509 217.075 760.399 217.288 759.141 217.288ZM772.203 201.864V212.2C772.203 213.053 772.385 213.661 772.747 214.024C773.11 214.365 773.739 214.536 774.635 214.536H776.779V217H774.155C772.534 217 771.318 216.627 770.507 215.88C769.697 215.133 769.291 213.907 769.291 212.2V201.864H767.019V199.464H769.291V195.048H772.203V199.464H776.779V201.864H772.203Z" fill="#1649FF"/>
</svg>
