<svg width="631" height="112" viewBox="0 0 631 112" fill="none" xmlns="http://www.w3.org/2000/svg">
<path d="M0 40C0 17.9086 17.9086 0 40 0H631V72C631 94.0914 613.091 112 591 112H40C17.9086 112 0 94.0914 0 72V40Z" fill="#1649FF"/>
<path d="M73.0486 35.875C68.5986 35.8675 63.0236 37.2738 57.5236 40.1363C52.0324 42.9988 47.6799 46.7488 45.1249 50.4113C42.5686 54.0613 41.8774 57.4613 43.1349 59.8863C44.3936 62.2988 47.5761 63.6863 52.0374 63.6863C56.4986 63.6988 62.0736 62.2863 67.5611 59.4363C73.0611 56.5738 77.4111 52.8113 79.9611 49.1613C82.5236 45.5113 83.1986 42.1113 81.9486 39.6863C80.6861 37.2738 77.5111 35.875 73.0486 35.875ZM84.5361 44.6613C84.0986 46.5738 83.1486 48.5363 81.8111 50.4488C78.9861 54.4863 74.3736 58.4238 68.5986 61.4238C62.8236 64.4363 56.9611 65.9488 52.0361 65.9488C49.7111 65.9488 47.5561 65.5988 45.7399 64.8613L47.0636 67.4113C48.3236 69.8363 51.4974 71.2238 55.9611 71.2238C60.4236 71.2238 65.9986 69.8238 71.4861 66.9613C76.9861 64.1113 81.3361 60.3488 83.8861 56.6863C86.4361 53.0363 87.1361 49.6363 85.8736 47.2238L84.5361 44.6613ZM88.1361 46.7613C89.5361 50.0988 88.4111 54.1613 85.7361 57.9738C83.3736 61.3613 79.7611 64.6488 75.2861 67.3988C76.6736 67.5488 78.1236 67.6238 79.5986 67.6238C85.7861 67.6238 91.3861 66.2988 95.3361 64.2363C99.2986 62.1738 101.474 59.4738 101.474 56.7488C101.474 54.0238 99.2986 51.3238 95.3361 49.2613C93.3236 48.2113 90.8736 47.3488 88.1361 46.7613ZM101.474 62.3613C100.199 63.8488 98.4486 65.1613 96.3861 66.2363C92.0111 68.5113 86.1111 69.8738 79.5986 69.8738C76.9486 69.8738 74.3986 69.6488 72.0111 69.2238C69.1111 70.6863 66.1986 71.7738 63.3986 72.4863C63.5486 72.5738 63.6986 72.6488 63.8611 72.7363C67.8111 74.7988 73.4111 76.1238 79.5986 76.1238C85.7861 76.1238 91.3861 74.7988 95.3361 72.7363C99.2986 70.6738 101.474 67.9738 101.474 65.2488V62.3613Z" fill="#FFC700"/>
<path d="M129.032 57.4C129.032 56.04 129.304 54.856 129.848 53.848C130.392 52.824 131.144 52.032 132.104 51.472C133.08 50.912 134.192 50.632 135.44 50.632C137.056 50.632 138.384 51.024 139.424 51.808C140.48 52.592 141.176 53.68 141.512 55.072H139.16C138.936 54.272 138.496 53.64 137.84 53.176C137.2 52.712 136.4 52.48 135.44 52.48C134.192 52.48 133.184 52.912 132.416 53.776C131.648 54.624 131.264 55.832 131.264 57.4C131.264 58.984 131.648 60.208 132.416 61.072C133.184 61.936 134.192 62.368 135.44 62.368C136.4 62.368 137.2 62.144 137.84 61.696C138.48 61.248 138.92 60.608 139.16 59.776H141.512C141.16 61.12 140.456 62.2 139.4 63.016C138.344 63.816 137.024 64.216 135.44 64.216C134.192 64.216 133.08 63.936 132.104 63.376C131.144 62.816 130.392 62.024 129.848 61C129.304 59.976 129.032 58.776 129.032 57.4ZM145.61 46.24V64H143.426V46.24H145.61ZM149.46 48.712C149.044 48.712 148.692 48.568 148.404 48.28C148.116 47.992 147.972 47.64 147.972 47.224C147.972 46.808 148.116 46.456 148.404 46.168C148.692 45.88 149.044 45.736 149.46 45.736C149.86 45.736 150.196 45.88 150.468 46.168C150.756 46.456 150.9 46.808 150.9 47.224C150.9 47.64 150.756 47.992 150.468 48.28C150.196 48.568 149.86 48.712 149.46 48.712ZM150.516 50.848V64H148.332V50.848H150.516ZM152.423 57.4C152.423 56.04 152.695 54.856 153.239 53.848C153.783 52.824 154.535 52.032 155.495 51.472C156.471 50.912 157.583 50.632 158.831 50.632C160.447 50.632 161.775 51.024 162.815 51.808C163.871 52.592 164.567 53.68 164.903 55.072H162.551C162.327 54.272 161.887 53.64 161.231 53.176C160.591 52.712 159.791 52.48 158.831 52.48C157.583 52.48 156.575 52.912 155.807 53.776C155.039 54.624 154.655 55.832 154.655 57.4C154.655 58.984 155.039 60.208 155.807 61.072C156.575 61.936 157.583 62.368 158.831 62.368C159.791 62.368 160.591 62.144 161.231 61.696C161.871 61.248 162.311 60.608 162.551 59.776H164.903C164.551 61.12 163.847 62.2 162.791 63.016C161.735 63.816 160.415 64.216 158.831 64.216C157.583 64.216 156.471 63.936 155.495 63.376C154.535 62.816 153.783 62.024 153.239 61C152.695 59.976 152.423 58.776 152.423 57.4ZM174.161 64L169.001 58.192V64H166.817V46.24H169.001V56.68L174.065 50.848H177.113L170.921 57.4L177.137 64H174.161ZM190.095 50.608C191.087 50.608 191.983 50.824 192.783 51.256C193.583 51.672 194.207 52.304 194.655 53.152C195.119 54 195.351 55.032 195.351 56.248V64H193.191V56.56C193.191 55.248 192.863 54.248 192.207 53.56C191.551 52.856 190.655 52.504 189.519 52.504C188.367 52.504 187.447 52.864 186.759 53.584C186.087 54.304 185.751 55.352 185.751 56.728V64H183.567V46.24H185.751V52.72C186.183 52.048 186.775 51.528 187.527 51.16C188.295 50.792 189.151 50.608 190.095 50.608ZM209.918 56.92C209.918 57.336 209.894 57.776 209.846 58.24H199.334C199.414 59.536 199.854 60.552 200.654 61.288C201.47 62.008 202.454 62.368 203.606 62.368C204.55 62.368 205.334 62.152 205.958 61.72C206.598 61.272 207.046 60.68 207.302 59.944H209.654C209.302 61.208 208.598 62.24 207.542 63.04C206.486 63.824 205.174 64.216 203.606 64.216C202.358 64.216 201.238 63.936 200.246 63.376C199.27 62.816 198.502 62.024 197.942 61C197.382 59.96 197.102 58.76 197.102 57.4C197.102 56.04 197.374 54.848 197.918 53.824C198.462 52.8 199.222 52.016 200.198 51.472C201.19 50.912 202.326 50.632 203.606 50.632C204.854 50.632 205.958 50.904 206.918 51.448C207.878 51.992 208.614 52.744 209.126 53.704C209.654 54.648 209.918 55.72 209.918 56.92ZM207.662 56.464C207.662 55.632 207.478 54.92 207.11 54.328C206.742 53.72 206.238 53.264 205.598 52.96C204.974 52.64 204.278 52.48 203.51 52.48C202.406 52.48 201.462 52.832 200.678 53.536C199.91 54.24 199.47 55.216 199.358 56.464H207.662ZM213.985 52.984C214.369 52.232 214.913 51.648 215.617 51.232C216.337 50.816 217.209 50.608 218.233 50.608V52.864H217.657C215.209 52.864 213.985 54.192 213.985 56.848V64H211.801V50.848H213.985V52.984ZM231.754 56.92C231.754 57.336 231.73 57.776 231.682 58.24H221.17C221.25 59.536 221.69 60.552 222.49 61.288C223.306 62.008 224.29 62.368 225.442 62.368C226.386 62.368 227.17 62.152 227.794 61.72C228.434 61.272 228.882 60.68 229.138 59.944H231.49C231.138 61.208 230.434 62.24 229.378 63.04C228.322 63.824 227.01 64.216 225.442 64.216C224.194 64.216 223.074 63.936 222.082 63.376C221.106 62.816 220.338 62.024 219.778 61C219.218 59.96 218.938 58.76 218.938 57.4C218.938 56.04 219.21 54.848 219.754 53.824C220.298 52.8 221.058 52.016 222.034 51.472C223.026 50.912 224.162 50.632 225.442 50.632C226.69 50.632 227.794 50.904 228.754 51.448C229.714 51.992 230.45 52.744 230.962 53.704C231.49 54.648 231.754 55.72 231.754 56.92ZM229.498 56.464C229.498 55.632 229.314 54.92 228.946 54.328C228.578 53.72 228.074 53.264 227.434 52.96C226.81 52.64 226.114 52.48 225.346 52.48C224.242 52.48 223.298 52.832 222.514 53.536C221.746 54.24 221.306 55.216 221.194 56.464H229.498ZM241.699 52.648V60.4C241.699 61.04 241.835 61.496 242.107 61.768C242.379 62.024 242.851 62.152 243.523 62.152H245.131V64H243.163C241.947 64 241.035 63.72 240.427 63.16C239.819 62.6 239.515 61.68 239.515 60.4V52.648H237.811V50.848H239.515V47.536H241.699V50.848H245.131V52.648H241.699ZM252.514 64.216C251.282 64.216 250.162 63.936 249.154 63.376C248.162 62.816 247.378 62.024 246.802 61C246.242 59.96 245.962 58.76 245.962 57.4C245.962 56.056 246.25 54.872 246.826 53.848C247.418 52.808 248.218 52.016 249.226 51.472C250.234 50.912 251.362 50.632 252.61 50.632C253.858 50.632 254.986 50.912 255.994 51.472C257.002 52.016 257.794 52.8 258.37 53.824C258.962 54.848 259.258 56.04 259.258 57.4C259.258 58.76 258.954 59.96 258.346 61C257.754 62.024 256.946 62.816 255.922 63.376C254.898 63.936 253.762 64.216 252.514 64.216ZM252.514 62.296C253.298 62.296 254.034 62.112 254.722 61.744C255.41 61.376 255.962 60.824 256.378 60.088C256.81 59.352 257.026 58.456 257.026 57.4C257.026 56.344 256.818 55.448 256.402 54.712C255.986 53.976 255.442 53.432 254.77 53.08C254.098 52.712 253.37 52.528 252.586 52.528C251.786 52.528 251.05 52.712 250.378 53.08C249.722 53.432 249.194 53.976 248.794 54.712C248.394 55.448 248.194 56.344 248.194 57.4C248.194 58.472 248.386 59.376 248.77 60.112C249.17 60.848 249.698 61.4 250.354 61.768C251.01 62.12 251.73 62.296 252.514 62.296ZM273.872 64L268.712 58.192V64H266.528V46.24H268.712V56.68L273.776 50.848H276.824L270.632 57.4L276.848 64H273.872ZM284.287 50.608C285.887 50.608 287.183 51.096 288.175 52.072C289.167 53.032 289.663 54.424 289.663 56.248V64H287.503V56.56C287.503 55.248 287.175 54.248 286.519 53.56C285.863 52.856 284.967 52.504 283.831 52.504C282.679 52.504 281.759 52.864 281.071 53.584C280.399 54.304 280.063 55.352 280.063 56.728V64H277.879V50.848H280.063V52.72C280.495 52.048 281.079 51.528 281.815 51.16C282.567 50.792 283.391 50.608 284.287 50.608ZM297.967 64.216C296.735 64.216 295.615 63.936 294.607 63.376C293.615 62.816 292.831 62.024 292.255 61C291.695 59.96 291.415 58.76 291.415 57.4C291.415 56.056 291.703 54.872 292.279 53.848C292.871 52.808 293.671 52.016 294.679 51.472C295.687 50.912 296.815 50.632 298.063 50.632C299.311 50.632 300.439 50.912 301.447 51.472C302.455 52.016 303.247 52.8 303.823 53.824C304.415 54.848 304.711 56.04 304.711 57.4C304.711 58.76 304.407 59.96 303.799 61C303.207 62.024 302.399 62.816 301.375 63.376C300.351 63.936 299.215 64.216 297.967 64.216ZM297.967 62.296C298.751 62.296 299.487 62.112 300.175 61.744C300.863 61.376 301.415 60.824 301.831 60.088C302.263 59.352 302.479 58.456 302.479 57.4C302.479 56.344 302.271 55.448 301.855 54.712C301.439 53.976 300.895 53.432 300.223 53.08C299.551 52.712 298.823 52.528 298.039 52.528C297.239 52.528 296.503 52.712 295.831 53.08C295.175 53.432 294.647 53.976 294.247 54.712C293.847 55.448 293.647 56.344 293.647 57.4C293.647 58.472 293.839 59.376 294.223 60.112C294.623 60.848 295.151 61.4 295.807 61.768C296.463 62.12 297.183 62.296 297.967 62.296ZM324.102 50.848L319.998 64H317.742L314.574 53.56L311.406 64H309.15L305.022 50.848H307.254L310.278 61.888L313.542 50.848H315.774L318.966 61.912L321.942 50.848H324.102ZM337.196 50.608C338.188 50.608 339.084 50.824 339.884 51.256C340.684 51.672 341.308 52.304 341.756 53.152C342.22 54 342.452 55.032 342.452 56.248V64H340.292V56.56C340.292 55.248 339.964 54.248 339.308 53.56C338.652 52.856 337.756 52.504 336.62 52.504C335.468 52.504 334.548 52.864 333.86 53.584C333.188 54.304 332.852 55.352 332.852 56.728V64H330.668V46.24H332.852V52.72C333.284 52.048 333.876 51.528 334.628 51.16C335.396 50.792 336.252 50.608 337.196 50.608ZM350.756 64.216C349.524 64.216 348.404 63.936 347.396 63.376C346.404 62.816 345.62 62.024 345.044 61C344.484 59.96 344.204 58.76 344.204 57.4C344.204 56.056 344.492 54.872 345.068 53.848C345.66 52.808 346.46 52.016 347.468 51.472C348.476 50.912 349.604 50.632 350.852 50.632C352.1 50.632 353.228 50.912 354.236 51.472C355.244 52.016 356.036 52.8 356.612 53.824C357.204 54.848 357.5 56.04 357.5 57.4C357.5 58.76 357.196 59.96 356.588 61C355.996 62.024 355.188 62.816 354.164 63.376C353.14 63.936 352.004 64.216 350.756 64.216ZM350.756 62.296C351.54 62.296 352.276 62.112 352.964 61.744C353.652 61.376 354.204 60.824 354.62 60.088C355.052 59.352 355.268 58.456 355.268 57.4C355.268 56.344 355.06 55.448 354.644 54.712C354.228 53.976 353.684 53.432 353.012 53.08C352.34 52.712 351.612 52.528 350.828 52.528C350.028 52.528 349.292 52.712 348.62 53.08C347.964 53.432 347.436 53.976 347.036 54.712C346.636 55.448 346.436 56.344 346.436 57.4C346.436 58.472 346.628 59.376 347.012 60.112C347.412 60.848 347.94 61.4 348.596 61.768C349.252 62.12 349.972 62.296 350.756 62.296ZM376.891 50.848L372.787 64H370.531L367.363 53.56L364.195 64H361.939L357.811 50.848H360.043L363.067 61.888L366.331 50.848H368.563L371.755 61.912L374.731 50.848H376.891ZM386.121 52.648V60.4C386.121 61.04 386.257 61.496 386.529 61.768C386.801 62.024 387.273 62.152 387.945 62.152H389.553V64H387.585C386.369 64 385.457 63.72 384.849 63.16C384.241 62.6 383.937 61.68 383.937 60.4V52.648H382.233V50.848H383.937V47.536H386.121V50.848H389.553V52.648H386.121ZM396.936 64.216C395.704 64.216 394.584 63.936 393.576 63.376C392.584 62.816 391.8 62.024 391.224 61C390.664 59.96 390.384 58.76 390.384 57.4C390.384 56.056 390.672 54.872 391.248 53.848C391.84 52.808 392.64 52.016 393.648 51.472C394.656 50.912 395.784 50.632 397.032 50.632C398.28 50.632 399.408 50.912 400.416 51.472C401.424 52.016 402.216 52.8 402.792 53.824C403.384 54.848 403.68 56.04 403.68 57.4C403.68 58.76 403.376 59.96 402.768 61C402.176 62.024 401.368 62.816 400.344 63.376C399.32 63.936 398.184 64.216 396.936 64.216ZM396.936 62.296C397.72 62.296 398.456 62.112 399.144 61.744C399.832 61.376 400.384 60.824 400.8 60.088C401.232 59.352 401.448 58.456 401.448 57.4C401.448 56.344 401.24 55.448 400.824 54.712C400.408 53.976 399.864 53.432 399.192 53.08C398.52 52.712 397.792 52.528 397.008 52.528C396.208 52.528 395.472 52.712 394.8 53.08C394.144 53.432 393.616 53.976 393.216 54.712C392.816 55.448 392.616 56.344 392.616 57.4C392.616 58.472 392.808 59.376 393.192 60.112C393.592 60.848 394.12 61.4 394.776 61.768C395.432 62.12 396.152 62.296 396.936 62.296ZM422.95 56.92C422.95 57.336 422.926 57.776 422.878 58.24H412.366C412.446 59.536 412.886 60.552 413.686 61.288C414.502 62.008 415.486 62.368 416.638 62.368C417.582 62.368 418.366 62.152 418.99 61.72C419.63 61.272 420.078 60.68 420.334 59.944H422.686C422.334 61.208 421.63 62.24 420.574 63.04C419.518 63.824 418.206 64.216 416.638 64.216C415.39 64.216 414.27 63.936 413.278 63.376C412.302 62.816 411.534 62.024 410.974 61C410.414 59.96 410.134 58.76 410.134 57.4C410.134 56.04 410.406 54.848 410.95 53.824C411.494 52.8 412.254 52.016 413.23 51.472C414.222 50.912 415.358 50.632 416.638 50.632C417.886 50.632 418.99 50.904 419.95 51.448C420.91 51.992 421.646 52.744 422.158 53.704C422.686 54.648 422.95 55.72 422.95 56.92ZM420.694 56.464C420.694 55.632 420.51 54.92 420.142 54.328C419.774 53.72 419.27 53.264 418.63 52.96C418.006 52.64 417.31 52.48 416.542 52.48C415.438 52.48 414.494 52.832 413.71 53.536C412.942 54.24 412.502 55.216 412.39 56.464H420.694ZM424.016 57.376C424.016 56.032 424.288 54.856 424.832 53.848C425.376 52.824 426.12 52.032 427.064 51.472C428.024 50.912 429.088 50.632 430.256 50.632C431.408 50.632 432.408 50.88 433.256 51.376C434.104 51.872 434.736 52.496 435.152 53.248V50.848H437.36V64H435.152V61.552C434.72 62.32 434.072 62.96 433.208 63.472C432.36 63.968 431.368 64.216 430.232 64.216C429.064 64.216 428.008 63.928 427.064 63.352C426.12 62.776 425.376 61.968 424.832 60.928C424.288 59.888 424.016 58.704 424.016 57.376ZM435.152 57.4C435.152 56.408 434.952 55.544 434.552 54.808C434.152 54.072 433.608 53.512 432.92 53.128C432.248 52.728 431.504 52.528 430.688 52.528C429.872 52.528 429.128 52.72 428.456 53.104C427.784 53.488 427.248 54.048 426.848 54.784C426.448 55.52 426.248 56.384 426.248 57.376C426.248 58.384 426.448 59.264 426.848 60.016C427.248 60.752 427.784 61.32 428.456 61.72C429.128 62.104 429.872 62.296 430.688 62.296C431.504 62.296 432.248 62.104 432.92 61.72C433.608 61.32 434.152 60.752 434.552 60.016C434.952 59.264 435.152 58.392 435.152 57.4ZM442.235 52.984C442.619 52.232 443.163 51.648 443.867 51.232C444.587 50.816 445.459 50.608 446.483 50.608V52.864H445.907C443.459 52.864 442.235 54.192 442.235 56.848V64H440.051V50.848H442.235V52.984ZM454.412 50.608C456.012 50.608 457.308 51.096 458.3 52.072C459.292 53.032 459.788 54.424 459.788 56.248V64H457.628V56.56C457.628 55.248 457.3 54.248 456.644 53.56C455.988 52.856 455.092 52.504 453.956 52.504C452.804 52.504 451.884 52.864 451.196 53.584C450.524 54.304 450.188 55.352 450.188 56.728V64H448.004V50.848H450.188V52.72C450.62 52.048 451.204 51.528 451.94 51.16C452.692 50.792 453.516 50.608 454.412 50.608ZM483.57 50.608C484.594 50.608 485.506 50.824 486.306 51.256C487.106 51.672 487.738 52.304 488.202 53.152C488.666 54 488.898 55.032 488.898 56.248V64H486.738V56.56C486.738 55.248 486.41 54.248 485.754 53.56C485.114 52.856 484.242 52.504 483.138 52.504C482.002 52.504 481.098 52.872 480.426 53.608C479.754 54.328 479.418 55.376 479.418 56.752V64H477.258V56.56C477.258 55.248 476.93 54.248 476.274 53.56C475.634 52.856 474.762 52.504 473.658 52.504C472.522 52.504 471.618 52.872 470.946 53.608C470.274 54.328 469.938 55.376 469.938 56.752V64H467.754V50.848H469.938V52.744C470.37 52.056 470.946 51.528 471.666 51.16C472.402 50.792 473.21 50.608 474.09 50.608C475.194 50.608 476.17 50.856 477.018 51.352C477.866 51.848 478.498 52.576 478.914 53.536C479.282 52.608 479.89 51.888 480.738 51.376C481.586 50.864 482.53 50.608 483.57 50.608ZM497.217 64.216C495.985 64.216 494.865 63.936 493.857 63.376C492.865 62.816 492.081 62.024 491.505 61C490.945 59.96 490.665 58.76 490.665 57.4C490.665 56.056 490.953 54.872 491.529 53.848C492.121 52.808 492.921 52.016 493.929 51.472C494.937 50.912 496.065 50.632 497.313 50.632C498.561 50.632 499.689 50.912 500.697 51.472C501.705 52.016 502.497 52.8 503.073 53.824C503.665 54.848 503.961 56.04 503.961 57.4C503.961 58.76 503.657 59.96 503.049 61C502.457 62.024 501.649 62.816 500.625 63.376C499.601 63.936 498.465 64.216 497.217 64.216ZM497.217 62.296C498.001 62.296 498.737 62.112 499.425 61.744C500.113 61.376 500.665 60.824 501.081 60.088C501.513 59.352 501.729 58.456 501.729 57.4C501.729 56.344 501.521 55.448 501.105 54.712C500.689 53.976 500.145 53.432 499.473 53.08C498.801 52.712 498.073 52.528 497.289 52.528C496.489 52.528 495.753 52.712 495.081 53.08C494.425 53.432 493.897 53.976 493.497 54.712C493.097 55.448 492.897 56.344 492.897 57.4C492.897 58.472 493.089 59.376 493.473 60.112C493.873 60.848 494.401 61.4 495.057 61.768C495.713 62.12 496.433 62.296 497.217 62.296ZM508.016 52.984C508.4 52.232 508.944 51.648 509.648 51.232C510.368 50.816 511.24 50.608 512.264 50.608V52.864H511.688C509.24 52.864 508.016 54.192 508.016 56.848V64H505.832V50.848H508.016V52.984ZM525.785 56.92C525.785 57.336 525.761 57.776 525.713 58.24H515.201C515.281 59.536 515.721 60.552 516.521 61.288C517.337 62.008 518.321 62.368 519.473 62.368C520.417 62.368 521.201 62.152 521.825 61.72C522.465 61.272 522.913 60.68 523.169 59.944H525.521C525.169 61.208 524.465 62.24 523.409 63.04C522.353 63.824 521.041 64.216 519.473 64.216C518.225 64.216 517.105 63.936 516.113 63.376C515.137 62.816 514.369 62.024 513.809 61C513.249 59.96 512.969 58.76 512.969 57.4C512.969 56.04 513.241 54.848 513.785 53.824C514.329 52.8 515.089 52.016 516.065 51.472C517.057 50.912 518.193 50.632 519.473 50.632C520.721 50.632 521.825 50.904 522.785 51.448C523.745 51.992 524.481 52.744 524.993 53.704C525.521 54.648 525.785 55.72 525.785 56.92ZM523.529 56.464C523.529 55.632 523.345 54.92 522.977 54.328C522.609 53.72 522.105 53.264 521.465 52.96C520.841 52.64 520.145 52.48 519.377 52.48C518.273 52.48 517.329 52.832 516.545 53.536C515.777 54.24 515.337 55.216 515.225 56.464H523.529ZM532.251 57.4C532.251 56.04 532.523 54.856 533.067 53.848C533.611 52.824 534.363 52.032 535.323 51.472C536.299 50.912 537.411 50.632 538.659 50.632C540.275 50.632 541.603 51.024 542.643 51.808C543.699 52.592 544.395 53.68 544.731 55.072H542.379C542.155 54.272 541.715 53.64 541.059 53.176C540.419 52.712 539.619 52.48 538.659 52.48C537.411 52.48 536.403 52.912 535.635 53.776C534.867 54.624 534.483 55.832 534.483 57.4C534.483 58.984 534.867 60.208 535.635 61.072C536.403 61.936 537.411 62.368 538.659 62.368C539.619 62.368 540.419 62.144 541.059 61.696C541.699 61.248 542.139 60.608 542.379 59.776H544.731C544.379 61.12 543.675 62.2 542.619 63.016C541.563 63.816 540.243 64.216 538.659 64.216C537.411 64.216 536.299 63.936 535.323 63.376C534.363 62.816 533.611 62.024 533.067 61C532.523 59.976 532.251 58.776 532.251 57.4ZM552.381 64.216C551.149 64.216 550.029 63.936 549.021 63.376C548.029 62.816 547.245 62.024 546.669 61C546.109 59.96 545.829 58.76 545.829 57.4C545.829 56.056 546.117 54.872 546.693 53.848C547.285 52.808 548.085 52.016 549.093 51.472C550.101 50.912 551.229 50.632 552.477 50.632C553.725 50.632 554.853 50.912 555.861 51.472C556.869 52.016 557.661 52.8 558.237 53.824C558.829 54.848 559.125 56.04 559.125 57.4C559.125 58.76 558.821 59.96 558.213 61C557.621 62.024 556.813 62.816 555.789 63.376C554.765 63.936 553.629 64.216 552.381 64.216ZM552.381 62.296C553.165 62.296 553.901 62.112 554.589 61.744C555.277 61.376 555.829 60.824 556.245 60.088C556.677 59.352 556.893 58.456 556.893 57.4C556.893 56.344 556.685 55.448 556.269 54.712C555.853 53.976 555.309 53.432 554.637 53.08C553.965 52.712 553.237 52.528 552.453 52.528C551.653 52.528 550.917 52.712 550.245 53.08C549.589 53.432 549.061 53.976 548.661 54.712C548.261 55.448 548.061 56.344 548.061 57.4C548.061 58.472 548.253 59.376 548.637 60.112C549.037 60.848 549.565 61.4 550.221 61.768C550.877 62.12 551.597 62.296 552.381 62.296ZM562.124 48.712C561.708 48.712 561.356 48.568 561.068 48.28C560.78 47.992 560.636 47.64 560.636 47.224C560.636 46.808 560.78 46.456 561.068 46.168C561.356 45.88 561.708 45.736 562.124 45.736C562.524 45.736 562.86 45.88 563.132 46.168C563.42 46.456 563.564 46.808 563.564 47.224C563.564 47.64 563.42 47.992 563.132 48.28C562.86 48.568 562.524 48.712 562.124 48.712ZM563.18 50.848V64H560.996V50.848H563.18ZM572.311 50.608C573.911 50.608 575.207 51.096 576.199 52.072C577.191 53.032 577.687 54.424 577.687 56.248V64H575.527V56.56C575.527 55.248 575.199 54.248 574.543 53.56C573.887 52.856 572.991 52.504 571.855 52.504C570.703 52.504 569.783 52.864 569.095 53.584C568.423 54.304 568.087 55.352 568.087 56.728V64H565.903V50.848H568.087V52.72C568.519 52.048 569.103 51.528 569.839 51.16C570.591 50.792 571.415 50.608 572.311 50.608ZM584.91 64.216C583.902 64.216 582.998 64.048 582.198 63.712C581.398 63.36 580.766 62.88 580.302 62.272C579.838 61.648 579.582 60.936 579.534 60.136H581.79C581.854 60.792 582.158 61.328 582.702 61.744C583.262 62.16 583.99 62.368 584.886 62.368C585.718 62.368 586.374 62.184 586.854 61.816C587.334 61.448 587.574 60.984 587.574 60.424C587.574 59.848 587.318 59.424 586.806 59.152C586.294 58.864 585.502 58.584 584.43 58.312C583.454 58.056 582.654 57.8 582.03 57.544C581.422 57.272 580.894 56.88 580.446 56.368C580.014 55.84 579.798 55.152 579.798 54.304C579.798 53.632 579.998 53.016 580.398 52.456C580.798 51.896 581.366 51.456 582.102 51.136C582.838 50.8 583.678 50.632 584.622 50.632C586.078 50.632 587.254 51 588.15 51.736C589.046 52.472 589.526 53.48 589.59 54.76H587.406C587.358 54.072 587.078 53.52 586.566 53.104C586.07 52.688 585.398 52.48 584.55 52.48C583.766 52.48 583.142 52.648 582.678 52.984C582.214 53.32 581.982 53.76 581.982 54.304C581.982 54.736 582.118 55.096 582.39 55.384C582.678 55.656 583.03 55.88 583.446 56.056C583.878 56.216 584.47 56.4 585.222 56.608C586.166 56.864 586.934 57.12 587.526 57.376C588.118 57.616 588.622 57.984 589.038 58.48C589.47 58.976 589.694 59.624 589.71 60.424C589.71 61.144 589.51 61.792 589.11 62.368C588.71 62.944 588.142 63.4 587.406 63.736C586.686 64.056 585.854 64.216 584.91 64.216Z" fill="white"/>
</svg>
