<svg width="104" height="72" viewBox="0 0 104 72" fill="none" xmlns="http://www.w3.org/2000/svg">
<rect x="0.15625" width="103.69" height="72" rx="32" fill="#60D669"/>
<g clip-path="url(#clip0_922_3762)">
<path d="M33.0034 35.7579C33.0025 39.1187 33.8806 42.4002 35.5504 45.2926L32.8438 55.1751L42.9572 52.5233C45.7545 54.0461 48.8886 54.844 52.0735 54.8442H52.0819C62.5958 54.8442 71.1544 46.2887 71.1589 35.7729C71.161 30.6773 69.1783 25.8856 65.5762 22.2807C61.9746 18.676 57.1847 16.6898 52.0811 16.6875C41.5659 16.6875 33.0079 25.2425 33.0036 35.7579" fill="url(#paint0_linear_922_3762)"/>
<path d="M32.3221 35.7544C32.3211 39.2361 33.2307 42.635 34.96 45.631L32.1562 55.8678L42.6324 53.1209C45.5189 54.6947 48.7688 55.5245 52.0758 55.5257H52.0843C62.9755 55.5257 71.8415 46.6625 71.8462 35.7702C71.848 30.4915 69.7941 25.5276 66.0632 21.7935C62.3319 18.0598 57.3707 16.0022 52.0843 16C41.1913 16 32.3265 24.862 32.3221 35.7544ZM38.5611 45.115L38.1699 44.4941C36.5256 41.8795 35.6576 38.8581 35.6589 35.7557C35.6623 26.7022 43.0304 19.3364 52.0905 19.3364C56.4781 19.3383 60.6015 21.0487 63.7029 24.1519C66.8042 27.2555 68.5107 31.3811 68.5096 35.769C68.5056 44.8225 61.1373 52.1891 52.0843 52.1891H52.0778C49.13 52.1876 46.239 51.396 43.7178 49.9L43.1178 49.5442L36.9011 51.1741L38.5611 45.115Z" fill="url(#paint1_linear_922_3762)"/>
<path d="M47.1414 27.4975C46.7715 26.6753 46.3822 26.6587 46.0304 26.6443C45.7423 26.6319 45.413 26.6328 45.084 26.6328C44.7547 26.6328 44.2197 26.7567 43.7674 27.2505C43.3147 27.7448 42.0391 28.9392 42.0391 31.3685C42.0391 33.7978 43.8085 36.1457 44.0552 36.4755C44.3022 36.8046 47.4712 41.9494 52.4901 43.9286C56.6612 45.5734 57.5101 45.2463 58.4153 45.1638C59.3208 45.0817 61.3369 43.9697 61.7482 42.8167C62.1598 41.6638 62.1598 40.6756 62.0364 40.4691C61.913 40.2634 61.5837 40.1398 61.0899 39.893C60.5961 39.6462 58.1684 38.4514 57.7158 38.2866C57.2631 38.122 56.9339 38.0398 56.6046 38.5342C56.2753 39.0279 55.3298 40.1398 55.0415 40.4691C54.7536 40.7992 54.4654 40.8403 53.9718 40.5933C53.4777 40.3455 51.8874 39.8248 50.0008 38.1427C48.5329 36.8339 47.5419 35.2176 47.2538 34.7232C46.9657 34.2296 47.2229 33.962 47.4705 33.7159C47.6924 33.4947 47.9645 33.1393 48.2116 32.8511C48.4578 32.5628 48.54 32.357 48.7046 32.0277C48.8695 31.6981 48.787 31.4097 48.6637 31.1628C48.54 30.9158 47.5805 28.4738 47.1414 27.4975Z" fill="white"/>
</g>
<defs>
<linearGradient id="paint0_linear_922_3762" x1="1948.6" y1="3865.45" x2="1948.6" y2="16.6875" gradientUnits="userSpaceOnUse">
<stop stop-color="#1FAF38"/>
<stop offset="1" stop-color="#60D669"/>
</linearGradient>
<linearGradient id="paint1_linear_922_3762" x1="2016.65" y1="4002.78" x2="2016.65" y2="16" gradientUnits="userSpaceOnUse">
<stop stop-color="#F9F9F9"/>
<stop offset="1" stop-color="white"/>
</linearGradient>
<clipPath id="clip0_922_3762">
<rect width="39.6899" height="40" fill="white" transform="translate(32.1562 16)"/>
</clipPath>
</defs>
</svg>
