<svg width="105" height="72" viewBox="0 0 105 72" fill="none" xmlns="http://www.w3.org/2000/svg">
<rect x="0.84375" width="104" height="72" rx="32" fill="white"/>
<g clip-path="url(#clip0_922_3765)">
<path d="M63.4688 16H42.2188C37.0411 16 32.8438 20.1973 32.8438 25.375V46.625C32.8438 51.8027 37.0411 56 42.2188 56H63.4688C68.6464 56 72.8438 51.8027 72.8438 46.625V25.375C72.8438 20.1973 68.6464 16 63.4688 16Z" fill="url(#paint0_radial_922_3765)"/>
<path d="M63.4688 16H42.2188C37.0411 16 32.8438 20.1973 32.8438 25.375V46.625C32.8438 51.8027 37.0411 56 42.2188 56H63.4688C68.6464 56 72.8438 51.8027 72.8438 46.625V25.375C72.8438 20.1973 68.6464 16 63.4688 16Z" fill="url(#paint1_radial_922_3765)"/>
<path d="M52.8452 20.375C48.6017 20.375 48.0691 20.3936 46.4025 20.4694C44.7391 20.5456 43.6036 20.8089 42.6102 21.1953C41.5823 21.5944 40.7106 22.1283 39.8422 22.997C38.973 23.8656 38.4391 24.7373 38.0388 25.7647C37.6513 26.7584 37.3877 27.8944 37.3128 29.557C37.2383 31.2238 37.2188 31.7566 37.2188 36.0002C37.2188 40.2438 37.2375 40.7747 37.3131 42.4412C37.3897 44.1047 37.653 45.2402 38.0391 46.2336C38.4384 47.2614 38.9723 48.1331 39.8411 49.0016C40.7094 49.8708 41.5811 50.4059 42.6081 50.805C43.6023 51.1914 44.738 51.4547 46.4011 51.5309C48.0678 51.6067 48.6 51.6253 52.8433 51.6253C57.0872 51.6253 57.6181 51.6067 59.2847 51.5309C60.9481 51.4547 62.0848 51.1914 63.0791 50.805C64.1064 50.4059 64.9769 49.8708 65.845 49.0016C66.7142 48.1331 67.248 47.2614 67.6484 46.2341C68.0325 45.2402 68.2962 44.1044 68.3744 42.4416C68.4492 40.775 68.4688 40.2438 68.4688 36.0002C68.4688 31.7566 68.4492 31.2241 68.3744 29.5573C68.2962 27.8939 68.0325 26.7586 67.6484 25.7652C67.248 24.7373 66.7142 23.8656 65.845 22.997C64.9759 22.128 64.1067 21.5941 63.0781 21.1955C62.082 20.8089 60.9459 20.5455 59.2825 20.4694C57.6158 20.3936 57.0852 20.375 52.8403 20.375H52.8452ZM51.4434 23.1908C51.8595 23.1902 52.3238 23.1908 52.8452 23.1908C57.0172 23.1908 57.5116 23.2058 59.1591 23.2806C60.6825 23.3503 61.5094 23.6048 62.0602 23.8188C62.7894 24.1019 63.3092 24.4405 63.8558 24.9875C64.4027 25.5344 64.7411 26.0552 65.025 26.7844C65.2389 27.3344 65.4938 28.1613 65.5631 29.6847C65.638 31.3319 65.6542 31.8266 65.6542 35.9966C65.6542 40.1666 65.638 40.6614 65.5631 42.3084C65.4934 43.8319 65.2389 44.6587 65.025 45.2089C64.7419 45.9381 64.4027 46.4573 63.8558 47.0039C63.3089 47.5508 62.7897 47.8892 62.0602 48.1725C61.51 48.3873 60.6825 48.6413 59.1591 48.7109C57.5119 48.7858 57.0172 48.802 52.8452 48.802C48.673 48.802 48.1784 48.7858 46.5314 48.7109C45.008 48.6406 44.1811 48.3861 43.6298 48.1722C42.9008 47.8889 42.3798 47.5505 41.833 47.0036C41.2861 46.4567 40.9477 45.9372 40.6638 45.2077C40.4498 44.6575 40.195 43.8306 40.1256 42.3072C40.0508 40.66 40.0358 40.1653 40.0358 35.9927C40.0358 31.82 40.0508 31.328 40.1256 29.6808C40.1953 28.1573 40.4498 27.3305 40.6638 26.7797C40.947 26.0505 41.2861 25.5297 41.8331 24.9828C42.3802 24.4359 42.9008 24.0973 43.63 23.8136C44.1808 23.5988 45.008 23.3448 46.5314 23.2748C47.9728 23.2097 48.5314 23.1902 51.4434 23.1869V23.1908ZM61.1858 25.7852C60.1506 25.7852 59.3108 26.6242 59.3108 27.6595C59.3108 28.6947 60.1506 29.5345 61.1858 29.5345C62.2209 29.5345 63.0608 28.6947 63.0608 27.6595C63.0608 26.6244 62.2209 25.7845 61.1858 25.7845V25.7852ZM52.8452 27.9759C48.4139 27.9759 44.8211 31.5688 44.8211 36.0002C44.8211 40.4316 48.4139 44.0227 52.8452 44.0227C57.2766 44.0227 60.8681 40.4316 60.8681 36.0002C60.8681 31.5689 57.2763 27.9759 52.8448 27.9759H52.8452ZM52.8452 30.7917C55.7216 30.7917 58.0536 33.1234 58.0536 36.0002C58.0536 38.8766 55.7216 41.2086 52.8452 41.2086C49.9688 41.2086 47.6369 38.8766 47.6369 36.0002C47.6369 33.1234 49.9686 30.7917 52.8452 30.7917Z" fill="white"/>
</g>
<defs>
<radialGradient id="paint0_radial_922_3765" cx="0" cy="0" r="1" gradientUnits="userSpaceOnUse" gradientTransform="translate(43.4687 59.0808) rotate(-90) scale(39.643 36.8711)">
<stop stop-color="#FFDD55"/>
<stop offset="0.1" stop-color="#FFDD55"/>
<stop offset="0.5" stop-color="#FF543E"/>
<stop offset="1" stop-color="#C837AB"/>
</radialGradient>
<radialGradient id="paint1_radial_922_3765" cx="0" cy="0" r="1" gradientUnits="userSpaceOnUse" gradientTransform="translate(26.1436 18.8814) rotate(78.681) scale(17.7206 73.045)">
<stop stop-color="#3771C8"/>
<stop offset="0.128" stop-color="#3771C8"/>
<stop offset="1" stop-color="#6600FF" stop-opacity="0"/>
</radialGradient>
<clipPath id="clip0_922_3765">
<rect width="40" height="40" fill="white" transform="translate(32.8438 16)"/>
</clipPath>
</defs>
</svg>
