<svg width="105" height="72" viewBox="0 0 105 72" fill="none" xmlns="http://www.w3.org/2000/svg">
<rect x="0.84375" width="104" height="72" rx="32" fill="#0A66C2"/>
<path d="M64.5104 21C65.3945 21 66.2423 21.3512 66.8674 21.9763C67.4926 22.6014 67.8438 23.4493 67.8438 24.3333V47.6667C67.8438 48.5507 67.4926 49.3986 66.8674 50.0237C66.2423 50.6488 65.3945 51 64.5104 51H41.1771C40.293 51 39.4452 50.6488 38.8201 50.0237C38.1949 49.3986 37.8438 48.5507 37.8438 47.6667V24.3333C37.8438 23.4493 38.1949 22.6014 38.8201 21.9763C39.4452 21.3512 40.293 21 41.1771 21H64.5104ZM63.6771 46.8333V38C63.6771 36.559 63.1046 35.177 62.0857 34.1581C61.0667 33.1391 59.6848 32.5667 58.2437 32.5667C56.8271 32.5667 55.1771 33.4333 54.3771 34.7333V32.8833H49.7271V46.8333H54.3771V38.6167C54.3771 37.3333 55.4104 36.2833 56.6938 36.2833C57.3126 36.2833 57.9061 36.5292 58.3437 36.9668C58.7812 37.4043 59.0271 37.9978 59.0271 38.6167V46.8333H63.6771ZM44.3104 30.2667C45.053 30.2667 45.7652 29.9717 46.2903 29.4466C46.8154 28.9215 47.1104 28.2093 47.1104 27.4667C47.1104 25.9167 45.8604 24.65 44.3104 24.65C43.5634 24.65 42.847 24.9468 42.3187 25.475C41.7905 26.0032 41.4938 26.7196 41.4938 27.4667C41.4938 29.0167 42.7604 30.2667 44.3104 30.2667ZM46.6271 46.8333V32.8833H42.0104V46.8333H46.6271Z" fill="white"/>
</svg>
